<svg width="58" height="12" viewBox="0 0 58 12" fill="none" xmlns="http://www.w3.org/2000/svg">
<path d="M0.879883 11.7647V0H6.13374C7.45289 0 8.51049 0.403364 9.30653 1.21009C10.1026 2.0056 10.5006 3.06443 10.5006 4.38656C10.5006 5.96639 9.9263 7.13726 8.77773 7.89917L10.9441 11.7647H8.0613L6.30432 8.63866C6.16786 8.66107 6.05414 8.67227 5.96316 8.67227H3.5921V11.7647H0.879883ZM3.5921 2.21849V6.45379H5.75847C6.3953 6.45379 6.90704 6.26331 7.29368 5.88236C7.68033 5.4902 7.87366 4.96919 7.87366 4.31933C7.87366 3.69188 7.68033 3.18768 7.29368 2.80673C6.90704 2.41457 6.3953 2.21849 5.75847 2.21849H3.5921Z" fill="#E6E8EB"/>
<path d="M11.5014 9.37815C11.49 8.87395 11.5867 8.44258 11.7914 8.08404C11.9961 7.71429 12.269 7.43418 12.6102 7.24371C12.9627 7.04203 13.3266 6.89637 13.7019 6.80673C14.0885 6.7171 14.4866 6.67228 14.8959 6.67228H17.5741C17.4376 5.80954 16.7837 5.34454 15.6124 5.27732C15.5896 5.27732 15.5442 5.27732 15.4759 5.27732C15.4077 5.26611 15.3622 5.26051 15.3395 5.26051C14.407 5.26051 13.5199 5.53502 12.6784 6.08404L11.7914 4.35295C12.8035 3.55743 14.1113 3.15967 15.7147 3.15967C16.1355 3.15967 16.5449 3.19328 16.9429 3.26051C17.3409 3.32774 17.7503 3.45099 18.1711 3.63026C18.6032 3.79833 18.9728 4.02242 19.2799 4.30253C19.5983 4.57143 19.8541 4.93558 20.0475 5.39497C20.2522 5.84315 20.3545 6.35855 20.3545 6.94119V11.7647H17.6423V10.958C16.9258 11.6078 15.9933 11.9328 14.8448 11.9328C13.9009 11.9328 13.1105 11.7255 12.4737 11.3109C11.8483 10.8964 11.5242 10.2521 11.5014 9.37815ZM14.0772 9.09244C14.0658 9.46219 14.2136 9.7367 14.5207 9.91597C14.8391 10.0952 15.203 10.1849 15.6124 10.1849C16.6927 10.1513 17.3694 9.71429 17.6423 8.87395V8.03362H15.8853C14.714 8.03362 14.1113 8.38656 14.0772 9.09244Z" fill="#E6E8EB"/>
<path d="M24.8813 11.7647H22.169V0H24.8813V6.16807L27.7641 3.36135H31.4145L27.5935 6.89077L31.4486 11.7647H28.1905L25.7853 8.62185L24.8813 9.42858V11.7647Z" fill="#E6E8EB"/>
<path d="M32.1973 3.36135H34.9095V7.84875C34.9095 9.2269 35.4497 9.92717 36.53 9.94958C37.8037 9.94958 38.4689 9.15967 38.5258 7.57984V3.36135H41.2551V11.7647H38.5258V10.4706C38.3211 10.8627 37.9629 11.2045 37.4511 11.4958C36.9508 11.7871 36.3253 11.9328 35.5748 11.9328C35.1654 11.9328 34.7787 11.8768 34.4148 11.7647C34.0509 11.6639 33.6927 11.4902 33.3402 11.2437C32.9876 10.986 32.709 10.605 32.5043 10.1008C32.2996 9.59665 32.1973 8.986 32.1973 8.26891V3.36135Z" fill="#E6E8EB"/>
<path d="M45.7706 11.7647H43.0584V3.36135L45.7706 3.37816V4.67227C45.964 4.32493 46.2881 4.01681 46.7429 3.74791C47.1978 3.479 47.7721 3.33894 48.4658 3.32774V5.51261C48.3862 5.50141 48.2668 5.49581 48.1076 5.49581C47.448 5.49581 46.8965 5.67508 46.453 6.03362C46.0094 6.38096 45.782 6.93559 45.7706 7.69749V11.7647Z" fill="#E6E8EB"/>
<path d="M57.2511 5.93278C56.2162 5.45099 55.2894 5.16527 54.4706 5.07564C54.3569 5.05323 54.2204 5.04203 54.0612 5.04203C53.2993 5.04203 52.9013 5.19889 52.8672 5.51261C52.8558 5.61345 52.8899 5.70309 52.9695 5.78152C53.0605 5.85995 53.1969 5.93278 53.3789 6.00001C53.5722 6.06724 53.7598 6.12886 53.9418 6.18488C54.1351 6.2409 54.3739 6.30813 54.6582 6.38656C54.9425 6.45379 55.1813 6.52102 55.3747 6.58825C57.3193 7.23811 58.1836 8.29692 57.9675 9.76471C57.7514 11.2549 56.5346 12 54.3171 12C52.3611 12 50.7975 11.6583 49.6261 10.9748L50.4108 9.05883C51.4115 9.54062 52.3782 9.83194 53.3107 9.93278C53.322 9.93278 53.3732 9.93838 53.4642 9.94958C53.5552 9.94958 53.6348 9.94958 53.703 9.94958C54.4649 9.94958 54.8686 9.79272 54.9141 9.47899C54.9369 9.32213 54.8402 9.19328 54.6241 9.09244C54.4081 8.9916 54.0328 8.87395 53.4983 8.7395C52.9752 8.60505 52.5885 8.4986 52.3384 8.42017C51.4513 8.10644 50.7804 7.69188 50.3255 7.17648C49.882 6.64987 49.7057 6.03922 49.7967 5.34455C49.8536 4.91878 50.0014 4.54903 50.2402 4.2353C50.479 3.92157 50.7747 3.68628 51.1272 3.52942C51.4911 3.37256 51.855 3.26051 52.219 3.19328C52.5829 3.12606 52.9638 3.09244 53.3618 3.09244C54.3626 3.09244 55.1529 3.14286 55.7329 3.2437C56.3242 3.33334 57.0179 3.55743 57.814 3.91598L57.2511 5.93278Z" fill="#E6E8EB"/>
</svg>
