<svg width="12" height="12" viewBox="0 0 12 12" fill="none" xmlns="http://www.w3.org/2000/svg">
<path d="M9.77898 2.21869C9.28756 1.72479 8.70222 1.33318 8.05711 1.06672C7.41199 0.80026 6.72001 0.664275 6.02152 0.666696C3.09489 0.666696 0.709629 3.04002 0.709629 5.95201C0.709629 6.88534 0.956195 7.79201 1.41717 8.59201L0.666748 11.3333L3.48082 10.5973C4.25804 11.0187 5.13174 11.2427 6.02152 11.2427C8.94815 11.2427 11.3334 8.86934 11.3334 5.95735C11.3334 4.54402 10.7813 3.21602 9.77898 2.21869ZM6.02152 10.3467C5.22822 10.3467 4.451 10.1333 3.77027 9.73334L3.60946 9.63734L1.9371 10.0747L2.38199 8.45334L2.27479 8.28801C1.83405 7.58773 1.60002 6.77827 1.59941 5.95201C1.59941 3.53069 3.58266 1.55736 6.01616 1.55736C7.19539 1.55736 8.30494 2.01603 9.13576 2.84802C9.54714 3.25547 9.87315 3.74011 10.0949 4.27385C10.3166 4.80758 10.4297 5.37981 10.4276 5.95735C10.4383 8.37867 8.45502 10.3467 6.02152 10.3467ZM8.4443 7.06134C8.3103 6.99734 7.65636 6.67734 7.53844 6.62934C7.41516 6.58668 7.32939 6.56534 7.23827 6.69334C7.14715 6.82668 6.89522 7.12534 6.82018 7.21068C6.74514 7.30134 6.66474 7.31201 6.53073 7.24268C6.39673 7.17868 5.96792 7.03468 5.46407 6.58668C5.06742 6.23468 4.80477 5.80268 4.72437 5.66935C4.64933 5.53601 4.71365 5.46668 4.78333 5.39735C4.84229 5.33868 4.91733 5.24268 4.98166 5.16802C5.04598 5.09335 5.07278 5.03468 5.11566 4.94935C5.15854 4.85868 5.1371 4.78402 5.10494 4.72002C5.07278 4.65602 4.80477 4.00535 4.69757 3.73869C4.59037 3.48269 4.4778 3.51469 4.3974 3.50935H4.14011C4.04899 3.50935 3.90963 3.54135 3.78635 3.67469C3.66842 3.80802 3.32537 4.12802 3.32537 4.77868C3.32537 5.42935 3.80243 6.05868 3.86675 6.14401C3.93107 6.23468 4.80477 7.56801 6.13408 8.13867C6.45033 8.27734 6.6969 8.35734 6.88986 8.41601C7.20611 8.51734 7.49556 8.50134 7.72604 8.46934C7.98333 8.43201 8.51398 8.14934 8.62119 7.84001C8.73375 7.53068 8.73375 7.26934 8.69623 7.21068C8.65871 7.15201 8.5783 7.12534 8.4443 7.06134Z" fill="#606266"/>
</svg>
