<svg width="12" height="12" viewBox="0 0 12 12" fill="none" xmlns="http://www.w3.org/2000/svg">
<path d="M11.0292 8.20411L8.69585 7.20409C8.59617 7.16161 8.48538 7.15266 8.38018 7.17858C8.27497 7.20451 8.18103 7.26391 8.1125 7.34784L7.07915 8.61037C5.4574 7.84573 4.15227 6.54059 3.38763 4.91884L4.65015 3.88549C4.73425 3.81709 4.79378 3.72315 4.81972 3.61789C4.84565 3.51264 4.83659 3.40179 4.7939 3.30215L3.79389 0.968772C3.74703 0.861355 3.66417 0.773653 3.55958 0.720788C3.45499 0.667924 3.33523 0.65321 3.22096 0.679184L1.05425 1.17919C0.94408 1.20463 0.845781 1.26667 0.775403 1.35517C0.705025 1.44367 0.666723 1.55342 0.666748 1.66649C0.666748 7.01034 4.99807 11.3333 10.3336 11.3333C10.4467 11.3334 10.5565 11.2951 10.645 11.2247C10.7336 11.1544 10.7956 11.056 10.8211 10.9458L11.3211 8.77912C11.3469 8.66429 11.3319 8.54405 11.2786 8.4391C11.2253 8.33415 11.1371 8.25106 11.0292 8.20411Z" fill="#606266"/>
</svg>
