<svg width="12" height="8" viewBox="0 0 12 8" fill="none" xmlns="http://www.w3.org/2000/svg">
<path d="M0.666748 0.672066L2.49229 0.672102C2.55225 3.72353 3.89805 5.01605 4.96407 5.28257V0.672066H6.68299V3.30376C7.73566 3.19051 8.84165 1.99125 9.21474 0.672066H10.9337C10.793 1.35622 10.5128 2.004 10.1104 2.5749C9.708 3.1458 9.19217 3.62755 8.59512 3.99001C9.26175 4.32096 9.85054 4.78962 10.3226 5.36503C10.7946 5.94044 11.1392 6.60949 11.3334 7.32794H9.44127C9.26692 6.70387 8.91212 6.1452 8.4214 5.72205C7.93069 5.29889 7.32592 5.0301 6.68299 4.94942V7.32794H6.47645C2.83208 7.32794 0.753373 4.82949 0.666748 0.672066Z" fill="#606266"/>
</svg>
